<svg version="1" xmlns="http://www.w3.org/2000/svg" width="2666.667" height="2666.667" viewBox="0 0 2000.000000 2000.000000"><path d="M972.8 343.5c-.2.2-3.4.6-7.3.9-80.3 6.8-157.7 52.2-200.9 118-12.2 18.5-21 36.4-28.1 56.7-3.3 9.6-8.8 29-9.9 34.9-.2 1.4-.7 3.6-1 5-3.2 13.8-5.9 40.8-5.9 59.5 0 43.5 11.6 85.6 34.8 127 9.2 16.5 42.9 75.7 48.2 84.9 3.5 6 6.3 11.3 6.3 11.7 0 .5.5.9 1 .9.6 0 1 .4 1 1 0 .5 4.1 8.1 9.1 16.7 5.1 8.7 10.1 17.4 11.1 19.3 1.1 1.9 6 10.3 10.8 18.6 4.9 8.3 9.9 16.9 11.1 19 1.9 3.6 6.1 10.6 21.4 36.9 2.9 4.9 6.1 10.4 7.2 12.2 4.9 8.4 18.1 31.2 20.4 35.3 1.5 2.5 4.4 7.5 6.5 11.1 2.2 3.7 10.2 17.6 17.9 30.8 7.7 13.3 14.7 25.4 15.6 26.9.9 1.5 2.7 4.8 4.2 7.4 1.4 2.5 3.6 6.3 4.9 8.5 1.4 2.1 2.8 4.5 3.1 5.3.4.8 1.7 3.1 2.8 5 3.2 5.3 23.9 40.9 26.7 45.9 1.4 2.5 3.8 6.8 5.5 9.5 1.7 2.8 4.7 8 6.7 11.6 2 3.6 10.3 18 18.5 32 8.1 14 15.6 26.9 16.6 28.6.9 1.7 3.6 6.2 5.8 9.9 2.3 3.7 4.1 6.9 4.1 7.1 0 .2 1.4 2.7 3.1 5.6 1.7 2.9 9.7 16.5 17.6 30.3 14.8 25.5 23.5 40.5 28.3 48.5 1.4 2.5 2.9 5.2 3.3 6 .4.8 2 3.6 3.5 6.1 1.5 2.5 6.4 11.1 11 19s8.8 15.1 9.3 15.9c.9 1.4 12.1 20.8 16 27.7 4.5 8 24.4 42.1 26 44.8 1 1.6 2.2 3.7 2.6 4.5.3.8 6.1 10.9 12.8 22.5 6.7 11.5 13.3 23 14.7 25.5 1.4 2.5 5.1 9 8.3 14.5 3.2 5.5 6.6 11.5 7.7 13.2 1 1.8 2.6 4.8 3.7 6.5 8.6 15 24.8 43.2 26.9 46.8 2.7 4.9 28.9 50.3 35.5 61.5 2.2 3.8 8.8 14.6 14.5 24 5.8 9.3 12.3 20.1 14.5 23.8 3.2 5.5 4.2 6.6 5.2 5.5.6-.7 11.4-19.1 24-40.8 25.6-44.5 25-43.3 29.7-51.5 2-3.3 6-10.3 9-15.5 3-5.2 13.7-23.7 23.8-41 10-17.3 19.2-33.1 20.2-35 8.9-15.6 14.4-25.2 16.8-29 3.1-5.1 20.4-35.1 24.2-42 1.4-2.5 6.2-10.7 10.7-18.4 4.4-7.6 8.1-13.9 8.1-14.1 0-.2 1.7-3.2 3.8-6.6 2.1-3.5 5.2-8.9 6.9-11.9 1.7-3 9-15.9 16.4-28.5 7.3-12.7 13.7-24 14.3-25.2.6-1.3 1.4-2.3 1.9-2.3.4 0 .7-.4.7-1 0-.5 3.2-6.4 7.2-13.2 3.9-6.8 8.1-14.1 9.4-16.3 1.2-2.2 8.8-15.5 16.9-29.5 17.2-29.7 17.9-31 20.3-35.3 2.5-4.3 8.1-13.8 9.2-15.7.5-.8 3.5-6 6.6-11.5 9.6-16.8 16.6-29 58.1-100.9 4.1-7 8.3-14.2 9.4-16 1-1.7 2.2-3.8 2.6-4.6.3-.8 2.1-3.9 4-6.8 1.8-2.9 3.3-5.4 3.3-5.7 0-.2 4.5-8.1 10.1-17.6 5.5-9.5 11.2-19.3 12.6-21.8 2.4-4.3 8.5-14.7 15.8-27.1 1.8-3 4.2-7.1 5.2-9 1.1-1.9 10.2-17.7 20.3-35 10.1-17.3 19.1-32.9 20-34.5 3.9-6.8 20.3-34.9 27.9-47.9 4.4-7.6 8.1-13.9 8.1-14.1 0-.1 2.5-4.4 5.5-9.4 3-5.1 5.5-9.6 5.5-10.1 0-.6.5-1 1-1 .6 0 1-.5 1-1 0-.6 4.7-9 10.4-18.8 5.7-9.7 11.3-19.3 12.4-21.3 1.1-2 3.9-6.7 6.1-10.4 2.3-3.7 4.1-6.8 4.1-7 0-.3 10.4-18.4 13-22.5 1.2-2 12.1-21 13.4-23.5.6-1.1 1.3-2.2 1.6-2.5.3-.3 3.6-5.9 7.4-12.5 3.8-6.6 9.5-16.6 12.7-22.1 3.2-5.6 6.4-11.7 7.2-13.5 2-4.9 2.1-12.6.3-15.3-1.7-2.7-7.6-6-12.6-7.1-4.1-.9-148.8-.9-155 0-7.2 1.1-16.1 5.9-21.6 11.7-4.5 4.7-7.7 9.7-15.3 23-5.1 9.2-7.1 12.6-19.7 34.6-7.4 12.7-13.4 23.5-13.4 23.9 0 .3-.6 1.4-1.4 2.2-.8.9-2.6 3.8-4.1 6.6-1.4 2.7-3.4 6.3-4.4 8-1 1.6-2.9 5-4.3 7.5s-5.2 9-8.4 14.5c-3.1 5.5-6.5 11.5-7.5 13.3-.9 1.8-2.2 3.8-2.7 4.5-.5.7-2.3 3.7-3.9 6.7-4.8 8.7-14.4 25.4-15.2 26.5-.5.5-2.2 3.5-3.8 6.5-1.6 3-5.5 9.8-8.5 15-9.5 16.5-24.5 42.4-26.6 46-1.1 1.9-7.9 13.8-15.2 26.5-7.4 12.6-14 24.1-14.7 25.5-.8 1.4-2.5 4.3-3.9 6.5-1.3 2.2-2.7 4.7-3.1 5.5-.6 1.4-7.2 12.7-9.3 16-.5.8-1.9 3.1-3 5.1-1 2-15.4 26.8-31.8 55.1-16.5 28.3-31.1 53.4-32.4 55.9-1.4 2.4-7.9 13.6-14.5 24.9-13.6 23.2-51.9 89.1-62.8 108-4 6.9-9.8 17-13 22.5-3.2 5.5-11.8 20.6-19.3 33.5-7.4 12.9-14.9 26-16.7 29-1.8 3-4.7 8.2-6.5 11.5-5.1 9.5-5.1 9.5-9.7 2.3-2.2-3.5-6.4-10.4-9.2-15.3-2.8-5-5.6-9.7-6.1-10.5-2.8-4.6-10.7-18.1-12.8-22-1.4-2.5-3.6-6.2-4.9-8.2-1.2-2.1-2.3-4-2.3-4.2 0-.2-2.8-5.1-6.1-10.8-3.4-5.6-7.1-11.9-8.2-13.8-1.8-3.3-9.9-17.2-46.5-80.5-8-13.8-17-29.3-20-34.5-3-5.2-7.6-13.1-10.2-17.5-2.5-4.4-13.1-22.6-23.4-40.5-10.3-17.9-19.2-33.2-19.7-34-2.6-4.3-9.6-16.7-10.2-18-.4-.8-1.6-2.9-2.6-4.5-2.5-4.2-15.9-27-18.9-32.5-1.4-2.5-13.3-23.2-26.5-46s-25.9-44.9-28.2-49c-2.4-4.1-11.8-20.6-21-36.5-9.2-16-18.1-31.5-19.8-34.5-1.7-3-4.8-8.3-6.9-11.8-2.1-3.4-3.8-6.4-3.8-6.6 0-.2-2.7-4.9-6-10.5-3.3-5.5-7.1-12.2-8.5-14.8-1.4-2.6-3-5.5-3.6-6.3-1.3-2.1-14.1-24.3-23.8-41.2-1-1.8-6.7-11.6-12.6-21.8-5.9-10.2-11.4-19.9-12.3-21.5-.8-1.7-2.3-4.1-3.2-5.5-.9-1.4-3.1-5-4.7-8-1.7-3-6.5-11.5-10.8-18.9-12.5-21.5-16.5-33.8-16.9-53.4-1.1-40.2 20.1-75.1 55.9-92.1 8.2-3.9 20.7-8.2 26.2-9.1 2.2-.3 5-.8 6.3-1 2.9-.6 19.3-.6 23-.1 15.5 2.4 29.4 8 43.5 17.6 32.8 22.4 47.7 58.7 41.1 100.5-1.3 8.5-8.9 26.2-18.1 42.5-8 14.2-14.9 28.5-16.1 33.7-2 8.7-1.1 17.5 2.7 25.1 2.7 5.5 16.8 30.6 23.9 42.7 20.9 35.4 34 57.9 34 58.6 0 .5.5.9 1 .9.6 0 1 .5 1 1 0 .9 24.4 43.4 26 45.3.4.5 5-4.9 10.2-12 6.7-9.1 18.3-28.3 39.9-66.1 16.7-29.3 32.7-57.7 35.5-63.1 17.9-34 28.6-69.1 32.1-104.9 1.3-13.8.7-44.7-1.1-55.2-.3-1.4-.7-4.2-1-6.3-1.4-9.2-2-11.8-5.1-24.2-4.9-19.2-11.5-36.6-21.6-57.3-8.4-17-22.4-39.8-29.6-47.9-1.5-1.7-4.7-5.6-7-8.5-5.9-7.4-24.1-25.1-34.8-33.7-8.9-7.2-32.1-23-34-23.2-.5-.1-2.2-1-3.6-2-4.7-3.3-25.1-12.6-37.9-17.2-14.3-5.2-23.5-7.8-37-10.6-9.3-2-11.4-2.3-21.5-3.6-2.7-.3-6.6-.9-8.5-1.2-3.6-.5-42.7-1.2-43.2-.8zM105.5 677.7c-4 1-4.7 2.4-4.2 8.4.6 6.9-7.1-7 67.2 121.3 9.2 15.9 17.5 30.4 18.5 32.1 1 1.8 3.7 6.3 5.9 10 2.3 3.7 4.1 6.9 4.1 7.2 0 .2 1.6 2.9 3.5 5.9 1.9 3 3.5 5.6 3.5 5.8 0 .2 5.5 9.8 12.2 21.2 6.6 11.5 12.9 22.2 13.8 23.9 1 1.6 5.7 9.7 10.5 18 4.9 8.2 9.7 16.6 10.7 18.5 1 1.9 2.8 5.1 3.9 7 2.5 4.1 32 54.9 40.4 69.5 3.2 5.5 9.7 16.7 14.5 25 4.7 8.2 14 24.2 20.5 35.5s13.5 23.3 15.6 26.8c2.2 3.5 3.9 6.5 3.9 6.7 0 .2 2.5 4.5 5.5 9.6 3 5 5.5 9.3 5.5 9.5 0 .2 1.8 3.3 4 6.9 2.2 3.6 4 7 4 7.5 0 .6.5 1 1 1 .6 0 1 .5 1 1.1 0 .6 2.7 5.6 6 11.1 3.3 5.4 6 10 6 10.2 0 .3 4.2 7.6 18.5 32.1 4.8 8.2 10 17.2 11.5 20 1.6 2.7 5.8 10.2 9.5 16.5 3.7 6.3 7.6 13.1 8.7 15 5.2 9.1 13 22.7 13.9 24 2.3 3.8 12.6 21.7 13.2 23 .4.8 1.5 2.8 2.6 4.5 1 1.6 7 12 13.3 23 6.4 11 19.1 33 28.3 49 9.2 15.9 17.6 30.5 18.6 32.2 2.8 4.9 4.7 8.1 16.9 29.3 6.2 10.7 12.4 21.5 13.8 24 1.4 2.5 4.8 8.5 7.7 13.5 2.9 4.9 6.2 10.6 7.3 12.5 1.1 1.9 4.5 8 7.7 13.5 3.1 5.5 6.9 12 8.3 14.5 1.4 2.5 4.5 7.8 6.9 11.8 2.4 4.1 4.3 7.5 4.3 7.7 0 .2 3.4 6.1 7.5 13 4.1 7 7.5 12.8 7.5 13 0 .2 4.8 8.6 10.6 18.7s11.6 20.1 12.9 22.3c1.2 2.2 6.4 11.2 11.5 20s10.4 18 11.8 20.5c17.2 31.1 20.5 31.5 34.2 4.3 5.1-10.1 6.9-13.3 13.4-24.3 2.1-3.6 4.7-8 5.8-9.9 1.1-1.9 9.4-16.3 18.6-32 9.1-15.7 17.1-29.6 17.6-30.8.6-1.3 1.4-2.3 1.9-2.3.4 0 .7-.4.7-.9 0-.8 21-37.6 24-42.1.6-.8 1.4-2.4 1.9-3.5s2.1-3.7 3.5-5.8c1.4-2.1 2.6-4 2.6-4.3 0-.4 8.5-15.1 18.8-32.6 2.9-4.8 5.2-9.1 5.2-9.7 0-.6.5-1.1 1-1.1.6 0 1-.4 1-.9 0-.7 10.6-19.5 15.9-28.1.5-.8 3.5-6 6.7-11.5s8.3-14.3 11.4-19.5c3.1-5.2 10.1-17.2 15.5-26.5 5.4-9.4 12.4-21.3 15.5-26.5 3.1-5.2 7.4-12.6 9.6-16.3 2.1-3.8 4.6-8.1 5.5-9.5.9-1.5 6.2-10.6 11.9-20.2 5.6-9.6 10.9-18.6 11.8-20 .9-1.4 1.7-2.7 1.8-3 0-.3 1.2-3 2.7-6 6.8-14.4 5.3-26.1-5.4-41.5-3.1-4.4-10.2-16.1-15.9-26-5.7-9.9-11.1-19.4-12-21-1-1.7-5-8.6-9-15.5s-8-13.9-9-15.5c-6.2-10.7-20.4-35.2-24.1-41.7-2.4-4.3-4.7-7.6-5-7.5-2.7.9-15 19.5-27.4 41.2-8.1 14.3-15.6 27.3-16.5 29-1 1.6-4.5 7.8-7.9 13.7-3.3 5.9-7 12.2-8.1 14-1.1 1.8-2.3 4-2.7 4.8-.4.8-2.6 4.8-5 8.8-2.4 4-4.3 7.5-4.3 7.7 0 .3-1.2 2.4-2.6 4.6-1.4 2.3-3.7 6.2-5.1 8.7-2.6 4.7-10.4 18.3-32.8 57.2-6.5 11.3-16.9 29.5-23.3 40.5-12.1 21.1-18.5 31.2-21.1 33.2-2.1 1.6-5.1.6-7.9-2.6-2.1-2.5-13.3-20.7-15.9-26.1-.7-1.4-2.2-4.1-3.4-6-1.9-3.2-23.9-41-53.2-91.5-6.1-10.5-15.6-26.9-21.2-36.5-5.6-9.6-17.3-29.9-26-45-8.7-15.1-16.5-28.6-17.4-30-.8-1.4-2.1-3.4-2.7-4.5-.6-1.1-3.7-6.5-6.9-12s-6.9-12-8.3-14.5c-1.3-2.5-3.7-6.5-5.2-9s-8-13.7-14.4-24.8c-6.5-11.2-12.6-21.8-13.6-23.5-1-1.8-6-10.4-11.1-19.2-5.1-8.8-10.2-17.6-11.3-19.7-10-17.6-14.1-24.5-15.2-25.8-.7-.8-1.3-2-1.4-2.5-.1-.6-3.3-6.2-7-12.5s-7.9-13.5-9.2-16c-1.4-2.5-5.6-9.7-9.3-16-3.7-6.3-8.1-14-9.7-17-1.7-3-4.2-7.2-5.5-9.2-1.2-2.1-2.3-4.2-2.3-4.8 0-.5-.4-1-1-1-.5 0-1-.4-1-1 0-.5-6.8-12.8-15.1-27.2-8.4-14.5-16.1-27.9-17.2-29.8-1.1-1.9-2.8-4.9-3.8-6.5-1.1-1.7-2.2-3.7-2.6-4.5-.4-.8-4.4-7.9-9-15.8s-9.4-16.2-10.7-18.5c-1.2-2.3-6.6-11.6-11.8-20.7-11.9-20.6-36.8-64.1-39.8-69.5-6.2-11.1-11.2-16.3-19-19.9-4.4-2-5.8-2.1-82.5-2.2-42.9-.1-78.9 0-80 .3z"/></svg>